<?xml version="1.0" standalone="no"?>
<!DOCTYPE svg PUBLIC "-//W3C//DTD SVG 20010904//EN"
 "http://www.w3.org/TR/2001/REC-SVG-20010904/DTD/svg10.dtd">
<svg version="1.0" xmlns="http://www.w3.org/2000/svg"
 width="500.000000pt" height="500.000000pt" viewBox="0 0 500.000000 500.000000"
 preserveAspectRatio="xMidYMid meet">
<metadata>
Created by potrace 1.14, written by Peter Selinger 2001-2017
</metadata>
<g transform="translate(0.000000,500.000000) scale(0.100000,-0.100000)"
fill="#000000" stroke="none">
<path d="M2745 4729 c-209 -121 -389 -224 -400 -229 -11 -5 -45 -24 -76 -42
-31 -18 -315 -181 -631 -362 l-575 -328 0 -781 0 -781 316 -179 c174 -99 322
-185 329 -191 10 -10 -58 -54 -311 -206 l-324 -193 -2 -186 c-2 -102 -4 -311
-6 -464 l-2 -279 36 -23 c20 -13 59 -36 88 -52 28 -15 145 -81 260 -147 114
-65 233 -132 263 -149 30 -17 83 -47 117 -68 47 -29 64 -35 72 -25 6 6 29 22
53 35 24 12 57 30 73 40 29 17 203 117 295 169 166 94 778 444 790 452 8 6 24
14 35 20 11 5 191 107 400 227 l380 218 3 867 2 867 -22 7 c-13 3 -45 21 -73
39 -27 18 -135 83 -238 145 l-189 112 42 24 c23 13 43 24 45 24 1 0 43 24 92
54 49 29 109 64 133 78 25 14 87 49 138 79 l92 53 -2 467 -3 466 -27 12 c-15
7 -99 54 -185 105 -87 50 -165 95 -173 99 -8 4 -28 15 -45 26 -16 10 -48 28
-70 41 -22 12 -97 56 -167 96 -70 41 -133 76 -140 78 -7 2 -184 -95 -393 -215z"/>
</g>
</svg>
